<?xml version="1.0" encoding="UTF-8"?>
<!DOCTYPE svg PUBLIC "-//W3C//DTD SVG 1.1//EN" "http://www.w3.org/Graphics/SVG/1.1/DTD/svg11.dtd">
<svg version="1.1" xmlns="http://www.w3.org/2000/svg" xmlns:xlink="http://www.w3.org/1999/xlink" x="0" y="0" width="127.285" height="127.285" viewBox="0, 0, 127.285, 127.285">
  <g id="Calque_1" transform="translate(-409.357, -375.357)">
    <g id="icon.png">
      <g id="White_Shape">
        <path d="M506.193,480.679 L513.762,488.247 C503.988,496.644 491.731,501.352 479,502.642 L479,491.934 C488.861,490.937 498.535,486.998 506.193,480.679 z" fill="#000000"/>
        <path d="M439.806,480.679 C447.489,486.987 457.122,490.933 467,491.934 L467,502.642 C454.185,501.627 442.11,496.394 432.238,488.247 L439.806,480.679 z" fill="#000000"/>
        <path d="M536.642,445 C535.627,457.815 530.394,469.89 522.247,479.762 L514.679,472.193 C520.987,464.511 524.933,454.878 525.934,445 L536.642,445 z" fill="#000000"/>
        <path d="M420.066,445 C421.063,454.861 425.002,464.535 431.321,472.193 L423.753,479.762 C415.356,469.988 410.648,457.73 409.358,445 L420.066,445 z" fill="#000000"/>
        <path d="M522.247,398.238 L524.285,400.708 C531.375,410.2 535.452,421.26 536.642,433 L525.934,433 C524.937,423.138 520.998,413.464 514.679,405.806 L522.247,398.238 z" fill="#000000"/>
        <path d="M423.752,398.238 L431.321,405.806 C425.012,413.488 421.067,423.122 420.066,433 L409.357,433 C410.373,420.185 415.606,408.11 423.753,398.238 L423.752,398.238 z" fill="#000000"/>
        <path d="M467,375.357 L467,386.066 C457.139,387.063 447.464,391.002 439.806,397.321 L432.238,389.752 C442.02,381.194 454.286,377.084 467,375.357 z" fill="#000000"/>
        <path d="M479,375.357 C491.815,376.373 503.89,381.606 513.762,389.753 L506.193,397.321 C498.511,391.012 488.878,387.067 479,386.066 L479,375.357 z" fill="#000000"/>
      </g>
      <path d="M499.116,435.491 C502.646,437.552 502.638,440.879 499.101,442.921 L460.642,465.124 C457.101,467.17 454.218,465.509 454.2,461.423 L454,416.56 C453.982,412.474 456.831,410.828 460.361,412.889 L499.116,435.491 z" fill="#000000" id="play"/>
    </g>
  </g>
</svg>
