<?xml version="1.0" encoding="UTF-8"?>
<!DOCTYPE svg PUBLIC "-//W3C//DTD SVG 1.1//EN" "http://www.w3.org/Graphics/SVG/1.1/DTD/svg11.dtd">
<svg version="1.1" xmlns="http://www.w3.org/2000/svg" xmlns:xlink="http://www.w3.org/1999/xlink" x="0" y="0" width="128" height="128" viewBox="0, 0, 128, 128">
  <g id="apple-tab-icon_(SVG)" transform="translate(-840, -432)">
    <g id="apple-tab-icon">
      <path d="M904,432 C939.346,432 968,460.654 968,496 C968,531.346 939.346,560 904,560 C868.654,560 840,531.346 840,496 C840,460.654 868.654,432 904,432 z M887.792,469.067 C885.658,469.788 885.084,471.46 885,473.56 L885.2,518.423 C885.218,522.509 888.101,524.17 891.642,522.124 L930.101,499.921 C933.638,497.879 933.646,494.552 930.116,492.491 L891.361,469.889 C889.381,468.964 890.545,469.333 887.792,469.067 z" fill="#000000"/>
    </g>
  </g>
</svg>
