<svg xmlns="http://www.w3.org/2000/svg" xmlns:xlink="http://www.w3.org/1999/xlink" width="1600" height="800" x="0" y="0" version="1.1" viewBox="0 0 1600 800"><g id="Calque_1"><path fill="#000" d="M0,0 L1600,0 L1600,800 L0,800 L0,0 z"/><g id="change_theme_color.png"><path id="Gray_Shape" fill="#1ED761" d="M800,780 C590.132,780 420,609.868 420,400 C420,190.132 590.132,20 800,20 C1009.868,20 1180,190.132 1180,400 C1180,609.868 1009.868,780 800,780 z"/><path id="play" fill="#000" d="M955.061,379.165 C976.022,391.403 975.978,411.155 954.974,423.283 L726.626,555.11 C705.6,567.26 688.484,557.395 688.374,533.139 L687.188,266.76 C687.078,242.504 703.996,232.726 724.957,244.964 L955.061,379.165 z"/></g></g></svg>